<svg width="22" height="22" viewBox="0 0 22 22" fill="none" xmlns="http://www.w3.org/2000/svg">
<g filter="url(#filter0_d)">
<circle cx="11" cy="10" r="9" fill="#2D76F1"/>
<circle cx="11" cy="10" r="9" stroke="white"/>
</g>
<path d="M11.4239 9.99973L14.7667 6.65701C14.8843 6.53932 14.8843 6.34852 14.7667 6.23084C14.649 6.11317 14.4582 6.11316 14.3405 6.23084L10.9978 9.57357L7.65506 6.23084C7.53737 6.11316 7.34656 6.11316 7.22889 6.23084C7.11122 6.34853 7.1112 6.53934 7.22889 6.65701L10.5716 9.99972L7.22889 13.3424C7.1112 13.4601 7.1112 13.6509 7.22889 13.7686C7.28773 13.8274 7.36485 13.8569 7.44198 13.8569C7.51911 13.8569 7.59622 13.8274 7.65507 13.7686L10.9978 10.4259L14.3405 13.7686C14.3993 13.8274 14.4764 13.8569 14.5536 13.8569C14.6307 13.8569 14.7078 13.8274 14.7667 13.7686C14.8843 13.6509 14.8843 13.4601 14.7667 13.3424L11.4239 9.99973Z" fill="white"/>
<defs>
<filter id="filter0_d" x="0.5" y="0.5" width="21" height="21" filterUnits="userSpaceOnUse" color-interpolation-filters="sRGB">
<feFlood flood-opacity="0" result="BackgroundImageFix"/>
<feColorMatrix in="SourceAlpha" type="matrix" values="0 0 0 0 0 0 0 0 0 0 0 0 0 0 0 0 0 0 127 0" result="hardAlpha"/>
<feOffset dy="1"/>
<feGaussianBlur stdDeviation="0.5"/>
<feComposite in2="hardAlpha" operator="out"/>
<feColorMatrix type="matrix" values="0 0 0 0 0 0 0 0 0 0 0 0 0 0 0 0 0 0 0.25 0"/>
<feBlend mode="normal" in2="BackgroundImageFix" result="effect1_dropShadow"/>
<feBlend mode="normal" in="SourceGraphic" in2="effect1_dropShadow" result="shape"/>
</filter>
</defs>
</svg>
