<svg width="22" height="24" viewBox="0 0 22 24" fill="none" xmlns="http://www.w3.org/2000/svg">
<path d="M21.0164 3.64041L17.7618 0.323063C17.5574 0.11475 17.2857 0 16.9966 0H3.29394C2.69726 0 2.21178 0.494859 2.21178 1.10306V12.0242H1.45079C0.650804 12.0242 0 12.6876 0 13.503V20.2666C0 21.082 0.650804 21.7455 1.45079 21.7455H12.8785C13.4752 21.7455 13.9606 21.2506 13.9606 20.6424V15.3818C13.9606 14.7736 13.4752 14.2787 12.8785 14.2787H1.45079C1.03116 14.2787 0.689801 13.9308 0.689801 13.503C0.689801 13.0753 1.03116 12.7274 1.45079 12.7274H2.21178V13.1274C2.21178 13.3216 2.3662 13.479 2.55668 13.479C2.74715 13.479 2.90158 13.3216 2.90158 13.1274V1.10306C2.90158 0.882516 3.07762 0.703125 3.29394 0.703125H16.5886V4.10911C16.5886 4.51017 16.9086 4.83647 17.3021 4.83647H20.6435V22.8969C20.6435 23.1175 20.4675 23.2969 20.2512 23.2969H3.29394C3.07757 23.2969 2.90158 23.1175 2.90158 22.8969C2.90158 22.7028 2.74715 22.5454 2.55668 22.5454C2.3662 22.5454 2.21178 22.7028 2.21178 22.8969C2.21178 23.5052 2.69726 24 3.29394 24H20.2512C20.8479 24 21.3333 23.5051 21.3333 22.8969V4.42041C21.3334 4.1258 21.2208 3.84877 21.0164 3.64041ZM1.45079 14.9819H12.8785C13.0949 14.9819 13.2708 15.1613 13.2708 15.3818V20.6424C13.2708 20.863 13.0948 21.0424 12.8785 21.0424H1.45079C1.03116 21.0424 0.689801 20.6944 0.689801 20.2666V14.7616C0.911135 14.9013 1.17188 14.9819 1.45079 14.9819ZM17.2784 4.10911V0.824672L20.5244 4.13334H17.3021C17.289 4.13334 17.2784 4.12247 17.2784 4.10911Z" fill="#F90606"/>
<path d="M9.89567 19.7333C10.0581 19.7333 10.1898 19.574 10.1898 19.3774V18.194H10.8271C10.9895 18.194 11.1212 18.0346 11.1212 17.838C11.1212 17.6415 10.9895 17.4821 10.8271 17.4821H10.1898V16.7119H10.9075C11.0699 16.7119 11.2016 16.5525 11.2016 16.356C11.2016 16.1593 11.0699 16 10.9075 16H9.89567C9.73325 16 9.60156 16.1593 9.60156 16.356V19.3773C9.60156 19.5739 9.73325 19.7333 9.89567 19.7333Z" fill="#F90606"/>
<path d="M5.97532 19.6281C6.04019 19.6955 6.12792 19.7333 6.21929 19.7333H6.22058C6.24519 19.7332 6.82533 19.7309 7.05707 19.7267C7.91276 19.711 8.53385 18.9288 8.53385 17.8667C8.53385 16.7502 7.92841 16 7.02724 16H6.21347C6.1215 16 6.03336 16.0383 5.9684 16.1064C5.90343 16.1746 5.867 16.267 5.86719 16.3632V16.3656V16.3656V19.3219C5.86719 19.3468 5.86959 19.3711 5.87416 19.3946C5.8797 19.4826 5.91525 19.5657 5.97532 19.6281ZM7.02724 16.7251C7.62747 16.7251 7.84129 17.3148 7.84129 17.8667C7.84129 18.6407 7.44135 18.9945 7.04497 19.0017C6.93481 19.0037 6.73825 19.0053 6.56437 19.0064C6.56327 18.6507 6.56096 17.0951 6.56036 16.7251H7.02724Z" fill="#F90606"/>
<path d="M3.51497 19.7333C3.68719 19.7333 3.82681 19.575 3.82681 19.3795V18.4172C3.98165 18.4163 4.15769 18.4154 4.2574 18.4154C4.8524 18.4154 5.33646 17.8737 5.33646 17.2077C5.33646 16.5418 4.8524 16 4.2574 16H3.51497C3.4321 16 3.35264 16.0375 3.2941 16.104C3.23581 16.1704 3.20317 16.2602 3.20317 16.3538H3.20312V19.3794C3.20312 19.575 3.34275 19.7333 3.51497 19.7333ZM4.2574 16.7077C4.50426 16.7077 4.71277 16.9368 4.71277 17.2078C4.71277 17.4788 4.50426 17.7077 4.2574 17.7077C4.15836 17.7077 3.98452 17.7086 3.83026 17.7095C3.82943 17.5288 3.82818 16.8969 3.82772 16.7078H4.2574V16.7077Z" fill="#F90606"/>
<path d="M9.95936 9.99004C9.12312 10.2591 8.26483 10.6316 7.80699 11.1134C7.42922 11.5109 7.36076 11.9722 7.61913 12.3788C7.79447 12.6548 8.0355 12.7991 8.30652 12.7991C8.41055 12.7991 8.51902 12.7778 8.62985 12.7346C9.02966 12.5787 9.46146 12.1353 9.94993 11.379C10.1076 11.1348 10.2673 10.8635 10.4262 10.5699C10.484 10.5526 10.543 10.5353 10.6033 10.5181C11.5636 10.2442 12.6499 10.0454 13.6033 9.96233C14.1845 10.5353 14.7853 10.9817 15.2974 11.1035C15.8608 11.2375 16.3075 10.9748 16.492 10.4008C16.6038 10.0532 16.4751 9.72534 16.1478 9.52391C15.8112 9.31675 15.2264 9.21671 14.41 9.22624C14.2361 9.22827 14.0525 9.23549 13.8615 9.24756C13.4947 8.86191 13.1131 8.40101 12.7456 7.89201C12.4609 7.49772 12.2064 7.10315 11.9912 6.72809C12.0146 6.6459 12.0368 6.56482 12.0579 6.48518C12.2905 5.60579 12.3735 4.93251 12.3045 4.48396C12.2048 3.8362 11.7947 3.74421 11.623 3.73477C11.0385 3.70254 10.6448 4.00322 10.5699 4.53904C10.5103 4.9647 10.6507 5.55034 10.9871 6.27963C11.0671 6.45299 11.1568 6.63166 11.2553 6.81412C11.2186 6.93419 11.1788 7.05911 11.1357 7.18913C10.8221 8.13516 10.3972 9.14322 9.95936 9.99004ZM8.32539 12.1035C8.30112 12.1066 8.2602 12.1118 8.19025 12.0017C8.13331 11.912 8.13023 11.8444 8.17881 11.7521C8.29241 11.5362 8.68025 11.2332 9.43075 10.9203C8.90695 11.7486 8.51548 12.0793 8.32539 12.1035ZM15.851 10.1612C15.8505 10.1655 15.8491 10.1732 15.8454 10.1848C15.7604 10.4492 15.6462 10.4742 15.452 10.4279C15.2149 10.3716 14.9138 10.193 14.5779 9.91969C15.4874 9.92709 15.8047 10.0942 15.851 10.1612ZM11.2435 4.63701C11.2574 4.53784 11.273 4.42633 11.5318 4.42633C11.5481 4.42633 11.5654 4.42679 11.5836 4.42767C11.6611 4.52392 11.701 4.95217 11.5217 5.79968C11.3105 5.30594 11.2074 4.89578 11.2435 4.63701ZM11.7173 7.5973C11.8667 7.83129 12.0273 8.06759 12.1976 8.30338C12.4418 8.64166 12.7177 8.99285 13.0096 9.32808C12.672 9.36962 12.3237 9.42322 11.9754 9.4877C11.7396 9.53131 11.3287 9.6136 10.8476 9.73593C10.9543 9.51036 11.0595 9.27656 11.1624 9.03614C11.367 8.55841 11.5552 8.06958 11.7173 7.5973Z" fill="#F90606"/>
</svg>
